<svg width="216" height="92" viewBox="0 0 216 92" fill="none" xmlns="http://www.w3.org/2000/svg">
<path d="M33.0825 38.874C32.5905 38.2671 31.9248 37.8046 31.0854 37.4867C30.2461 37.1977 29.4357 37.0532 28.6832 37.0532C28.249 37.0532 27.7859 37.111 27.3229 37.1977C26.8598 37.3133 26.4256 37.4578 25.9915 37.689C25.5863 37.9203 25.239 38.2093 24.9785 38.5561C24.718 38.9318 24.6022 39.3654 24.6022 39.8856C24.6022 40.7237 24.9206 41.3596 25.5284 41.7931C26.1362 42.2266 26.9466 42.6024 27.8728 42.9203C28.8279 43.2382 29.8409 43.5272 30.9118 43.8451C32.0116 44.1631 33.0246 44.5966 33.9508 45.1746C34.9059 45.7527 35.6873 46.5041 36.2951 47.4579C36.9029 48.4116 37.2213 49.6833 37.2213 51.3018C37.2213 52.8336 36.9319 54.1631 36.353 55.2903C35.7742 56.4175 35.0216 57.3712 34.0376 58.1227C33.0535 58.8741 31.9248 59.4233 30.6513 59.799C29.3778 60.1747 28.0175 60.3481 26.5993 60.3481C24.8048 60.3481 23.1551 60.088 21.6211 59.5389C20.0872 58.9898 18.669 58.1227 17.3376 56.9088L21.6501 52.1689C22.2868 53.0071 23.0683 53.6429 23.9944 54.0764C24.9496 54.5389 25.9047 54.7701 26.9177 54.7701C27.4097 54.7701 27.9017 54.7123 28.4227 54.5967C28.9147 54.4811 29.3778 54.3076 29.783 54.0764C30.1882 53.8452 30.5066 53.5562 30.7671 53.1805C30.9986 52.8047 31.1433 52.4001 31.1433 51.9088C31.1433 51.0706 30.8249 50.4348 30.1882 49.9435C29.5515 49.4521 28.77 49.0475 27.7859 48.7296C26.8308 48.3828 25.7889 48.0648 24.6891 47.718C23.5892 47.3712 22.5473 46.9377 21.5922 46.3596C20.6371 45.7816 19.8267 45.0301 19.1899 44.1053C18.5532 43.1804 18.2348 41.9376 18.2348 40.4058C18.2348 38.9318 18.5243 37.6312 19.1031 36.533C19.682 35.4347 20.4634 34.4809 21.4475 33.7295C22.4315 32.978 23.5314 32.4289 24.8048 32.0532C26.0783 31.6774 27.3807 31.504 28.7411 31.504C30.304 31.504 31.809 31.7352 33.2561 32.1688C34.7033 32.6023 36.0057 33.3538 37.1924 34.3942L33.0825 38.874Z" fill="white"/>
<path d="M43.5876 32.1677H49.6366V54.0465H60.8664V59.6245H43.5586V32.1677H43.5876Z" fill="white"/>
<path d="M88.9699 49.0464C88.9699 50.665 88.7094 52.1679 88.2464 53.5551C87.7543 54.9135 87.0308 56.1274 86.0467 57.139C85.0627 58.1506 83.876 58.9309 82.3999 59.5089C80.9528 60.087 79.2741 60.376 77.3928 60.376C75.4826 60.376 73.8039 60.087 72.3278 59.5089C70.8807 58.9309 69.6651 58.1506 68.681 57.139C67.697 56.1274 66.9734 54.9424 66.4814 53.5551C65.9893 52.1968 65.7578 50.6939 65.7578 49.0464V32.1677H71.8069V48.8152C71.8069 49.6823 71.9516 50.4626 72.2121 51.1852C72.4725 51.9077 72.8777 52.5436 73.3698 53.0638C73.8618 53.5841 74.4406 54.0176 75.1353 54.3066C75.8299 54.5956 76.5535 54.7401 77.3639 54.7401C78.1743 54.7401 78.8978 54.5956 79.5925 54.3066C80.2582 54.0176 80.837 53.5841 81.329 53.0638C81.8211 52.5436 82.1973 51.9077 82.4867 51.1852C82.7472 50.4626 82.8919 49.6823 82.8919 48.8152V32.1677H88.941V49.0464H88.9699Z" fill="white"/>
<path d="M45.9611 88.4399C22.4885 88.4399 3.3863 69.3646 3.3863 45.9251C3.3863 22.4857 22.4885 3.41043 45.9611 3.41043C61.4455 3.41043 75.4249 11.6186 83.0079 24.9424H86.8573C78.9269 9.53763 63.2979 0 45.9611 0C20.6073 0 0 20.5782 0 45.8962C0 71.2143 20.6073 91.7925 45.9611 91.7925C63.24 91.7925 78.7822 82.3416 86.7415 67.1103H82.8921C75.2802 80.3184 61.3876 88.4399 45.9611 88.4399Z" fill="white"/>
<path d="M98.5505 35.9536C98.7531 36.2715 99.0136 36.4738 99.332 36.6472C99.6503 36.7917 99.9687 36.8784 100.316 36.8784C100.519 36.8784 100.692 36.8495 100.895 36.7917C101.097 36.7339 101.271 36.6472 101.445 36.5316C101.618 36.416 101.734 36.2715 101.85 36.0981C101.966 35.9247 101.995 35.7224 101.995 35.4911C101.995 35.1732 101.879 34.9131 101.676 34.7397C101.474 34.5663 101.213 34.4218 100.924 34.3062C100.634 34.1906 100.287 34.0749 99.9397 33.9882C99.5924 33.8726 99.2451 33.7281 98.9557 33.5547C98.6373 33.3524 98.4058 33.1212 98.2032 32.8033C98.0006 32.4853 97.8848 32.0518 97.8848 31.5027C97.8848 31.2715 97.9427 31.0113 98.0585 30.7223C98.1742 30.4333 98.3189 30.2021 98.5505 29.9709C98.782 29.7397 99.0715 29.5373 99.4188 29.3928C99.7661 29.2483 100.2 29.1616 100.721 29.1616C101.184 29.1616 101.618 29.2194 102.024 29.3639C102.429 29.4795 102.805 29.7397 103.123 30.1443L102.197 30.9824C102.053 30.7512 101.85 30.5778 101.589 30.4622C101.329 30.3177 101.04 30.2599 100.692 30.2599C100.374 30.2599 100.113 30.2888 99.9108 30.3755C99.7082 30.4622 99.5345 30.5778 99.4188 30.6934C99.303 30.8379 99.2162 30.9535 99.1583 31.127C99.1004 31.2715 99.0715 31.416 99.0715 31.5316C99.0715 31.8784 99.1872 32.1674 99.3898 32.3408C99.5924 32.5431 99.8529 32.6877 100.142 32.8033C100.432 32.9189 100.779 33.0345 101.126 33.1212C101.474 33.2079 101.821 33.3524 102.11 33.5258C102.4 33.6992 102.66 33.9304 102.863 34.2195C103.066 34.5085 103.181 34.9131 103.181 35.4044C103.181 35.8091 103.095 36.1559 102.95 36.5027C102.805 36.8206 102.602 37.1097 102.342 37.312C102.082 37.5432 101.763 37.6877 101.416 37.8322C101.069 37.9478 100.692 38.0056 100.287 38.0056C99.7371 38.0056 99.2451 37.9189 98.7531 37.7166C98.2611 37.5143 97.8848 37.2253 97.5954 36.8495L98.5505 35.9536Z" fill="white"/>
<path d="M107.493 29.3336H110.445C110.995 29.3336 111.429 29.4203 111.777 29.5648C112.124 29.7093 112.384 29.8827 112.587 30.1139C112.79 30.3451 112.934 30.6052 113.021 30.8654C113.108 31.1544 113.137 31.4145 113.137 31.6746C113.137 31.9347 113.108 32.1948 113.021 32.4839C112.934 32.7729 112.79 33.0041 112.587 33.2353C112.384 33.4665 112.124 33.6399 111.777 33.7845C111.429 33.929 110.995 34.0157 110.445 34.0157H108.622V37.7151H107.493V29.3336ZM108.622 33.0041H110.127C110.358 33.0041 110.561 32.9752 110.793 32.9463C110.995 32.9174 111.198 32.8596 111.371 32.744C111.545 32.6573 111.69 32.5128 111.777 32.3394C111.892 32.1659 111.921 31.9347 111.921 31.6457C111.921 31.3567 111.863 31.1255 111.777 30.9521C111.661 30.7787 111.545 30.6341 111.371 30.5474C111.198 30.4607 110.995 30.374 110.793 30.3451C110.561 30.3162 110.358 30.2873 110.127 30.2873H108.622V33.0041Z" fill="white"/>
<path d="M117.103 29.3336H122.516V30.4029H118.232V32.8885H122.197V33.9579H118.232V36.6457H122.718V37.7151H117.103V29.3336Z" fill="white"/>
<path d="M132.789 31.1259C132.557 30.8079 132.239 30.5767 131.892 30.4033C131.516 30.2299 131.139 30.1432 130.763 30.1432C130.3 30.1432 129.866 30.2299 129.49 30.4033C129.113 30.5767 128.766 30.8368 128.505 31.1259C128.245 31.4438 128.013 31.7906 127.869 32.1952C127.724 32.5999 127.637 33.0623 127.637 33.5247C127.637 33.9582 127.695 34.3918 127.84 34.7675C127.984 35.1432 128.187 35.5189 128.448 35.808C128.708 36.097 129.055 36.3571 129.432 36.5305C129.808 36.7039 130.242 36.7906 130.734 36.7906C131.226 36.7906 131.631 36.7039 132.008 36.5016C132.384 36.2993 132.673 36.0392 132.934 35.6635L133.889 36.386C133.831 36.4727 133.715 36.5883 133.57 36.7617C133.426 36.9351 133.194 37.0796 132.934 37.2531C132.673 37.4265 132.355 37.5421 132.008 37.6866C131.631 37.8022 131.226 37.86 130.734 37.86C130.068 37.86 129.461 37.7444 128.94 37.4843C128.419 37.2242 127.956 36.9062 127.579 36.5016C127.203 36.097 126.914 35.6346 126.711 35.1143C126.508 34.5941 126.422 34.0739 126.422 33.5536C126.422 32.9178 126.537 32.3108 126.74 31.7617C126.943 31.2126 127.261 30.7501 127.637 30.3455C128.013 29.9409 128.477 29.6519 129.026 29.4206C129.576 29.1894 130.155 29.1027 130.792 29.1027C131.342 29.1027 131.892 29.2183 132.413 29.4206C132.934 29.623 133.368 29.9698 133.715 30.4033L132.789 31.1259Z" fill="white"/>
<path d="M137.883 29.3336H139.012V37.7151H137.883V29.3336Z" fill="white"/>
<path d="M146.422 29.3336H147.464L151.052 37.7151H149.721L148.882 35.6342H144.888L144.048 37.7151H142.717L146.422 29.3336ZM148.448 34.6226L146.885 30.7787H146.856L145.264 34.6226H148.448Z" fill="white"/>
<path d="M154.728 29.3336H155.857V36.6457H159.707V37.7151H154.728V29.3336Z" fill="white"/>
<path d="M164.134 30.4029H161.443V29.3336H167.984V30.4029H165.263V37.7151H164.134V30.4029Z" fill="white"/>
<path d="M173.772 34.1313L170.588 29.3336H172.035L174.322 33.0041L176.666 29.3336H178.055L174.872 34.1313V37.7151H173.743V34.1313H173.772Z" fill="white"/>
<path d="M98.2906 41.7043H99.4194V49.0165H103.269V50.0859H98.2906V41.7043Z" fill="white"/>
<path d="M107.059 41.7043H108.188V50.0859H107.059V41.7043Z" fill="white"/>
<path d="M112.934 41.7043H114.439L119.07 48.583H119.099V41.7043H120.228V50.0859H118.781L114.121 43.2072H114.092V50.0859H112.963V41.7043H112.934Z" fill="white"/>
<path d="M124.976 41.7043H130.388V42.7737H126.104V45.2593H130.07V46.3287H126.104V49.0165H130.59V50.0859H124.976V41.7043Z" fill="white"/>
<path d="M135.046 48.3224C135.249 48.6403 135.509 48.8426 135.828 49.0161C136.146 49.1606 136.464 49.2473 136.812 49.2473C137.014 49.2473 137.188 49.2184 137.391 49.1606C137.593 49.1028 137.767 49.0161 137.941 48.9004C138.114 48.7848 138.23 48.6403 138.346 48.4669C138.461 48.2935 138.49 48.0912 138.49 47.86C138.49 47.5421 138.375 47.2819 138.172 47.1085C137.969 46.9351 137.709 46.7906 137.42 46.675C137.13 46.5594 136.783 46.4438 136.435 46.3571C136.088 46.2415 135.741 46.097 135.451 45.9235C135.133 45.7212 134.902 45.49 134.699 45.1721C134.496 44.8542 134.381 44.4206 134.381 43.8715C134.381 43.6403 134.438 43.3802 134.554 43.0912C134.67 42.8021 134.815 42.5709 135.046 42.3397C135.278 42.1085 135.567 41.9062 135.915 41.7617C136.262 41.6172 136.696 41.5305 137.217 41.5305C137.68 41.5305 138.114 41.5883 138.519 41.7328C138.925 41.8484 139.301 42.1085 139.619 42.5131L138.693 43.3513C138.548 43.1201 138.346 42.9467 138.085 42.831C137.825 42.6865 137.535 42.6287 137.188 42.6287C136.87 42.6287 136.609 42.6576 136.407 42.7443C136.204 42.831 136.03 42.9467 135.915 43.0623C135.799 43.2068 135.712 43.3224 135.654 43.4958C135.596 43.6403 135.567 43.7848 135.567 43.9004C135.567 44.2472 135.683 44.5363 135.886 44.7097C136.088 44.912 136.349 45.0565 136.638 45.1721C136.928 45.2877 137.275 45.4033 137.622 45.49C137.969 45.5767 138.317 45.7212 138.606 45.8946C138.896 46.0681 139.156 46.2993 139.359 46.5883C139.561 46.8773 139.677 47.2819 139.677 47.7733C139.677 48.1779 139.59 48.5247 139.446 48.8715C139.301 49.1895 139.098 49.4785 138.838 49.6808C138.577 49.912 138.259 50.0565 137.912 50.201C137.564 50.3166 137.188 50.3744 136.783 50.3744C136.233 50.3744 135.741 50.2877 135.249 50.0854C134.757 49.8831 134.381 49.5941 134.091 49.2184L135.046 48.3224Z" fill="white"/>
<path d="M99.2743 54.1031V59.2476C99.2743 59.5078 99.3033 59.7679 99.3901 60.0569C99.448 60.3459 99.5927 60.606 99.7374 60.8372C99.9111 61.0685 100.114 61.2708 100.374 61.4153C100.635 61.5598 100.982 61.6465 101.358 61.6465C101.734 61.6465 102.082 61.5598 102.342 61.4153C102.603 61.2708 102.834 61.0685 102.979 60.8372C103.153 60.606 103.268 60.3459 103.326 60.0569C103.384 59.7679 103.442 59.5078 103.442 59.2476V54.1031H104.571V59.421C104.571 59.9124 104.484 60.3459 104.31 60.7505C104.137 61.1552 103.905 61.502 103.616 61.791C103.326 62.08 102.979 62.3112 102.574 62.4557C102.169 62.6003 101.763 62.687 101.3 62.687C100.837 62.687 100.403 62.6003 100.027 62.4557C99.6216 62.3112 99.3033 62.08 98.9849 61.791C98.6955 61.502 98.4639 61.1552 98.2903 60.7505C98.1166 60.3459 98.0298 59.9124 98.0298 59.421V54.1031H99.2743Z" fill="white"/>
<path d="M109.23 54.1031H110.735L115.366 60.9817H115.395V54.1031H116.523V62.4846H115.076L110.416 55.606H110.388V62.4846H109.259V54.1031H109.23Z" fill="white"/>
<path d="M121.067 54.1031H123.991C124.569 54.1031 125.09 54.1609 125.553 54.3054C125.988 54.4499 126.393 54.6233 126.711 54.8545C127.03 55.0858 127.319 55.3459 127.522 55.6349C127.724 55.9239 127.898 56.2129 128.043 56.5309C128.158 56.8488 128.245 57.1378 128.303 57.4557C128.361 57.7736 128.39 58.0338 128.39 58.2939C128.39 58.843 128.303 59.3343 128.1 59.8546C127.898 60.3459 127.608 60.8083 127.232 61.1841C126.856 61.5887 126.364 61.8777 125.785 62.1378C125.206 62.369 124.54 62.4846 123.788 62.4846H121.038V54.1031H121.067ZM122.225 61.4153H123.643C124.135 61.4153 124.569 61.3575 125.004 61.213C125.438 61.0685 125.814 60.895 126.132 60.6349C126.451 60.3748 126.711 60.0569 126.914 59.6523C127.116 59.2765 127.203 58.8141 127.203 58.2939C127.203 58.0338 127.145 57.7158 127.059 57.3401C126.972 56.9933 126.798 56.6465 126.566 56.3285C126.335 56.0106 125.988 55.7216 125.553 55.5193C125.119 55.2881 124.569 55.1725 123.904 55.1725H122.196V61.4153H122.225Z" fill="white"/>
<path d="M132.645 54.1031H138.057V55.1725H133.774V57.658H137.768V58.7274H133.803V61.4153H138.289V62.4846H132.674V54.1031H132.645Z" fill="white"/>
<path d="M142.485 54.1031H145.437C145.987 54.1031 146.421 54.1898 146.769 54.3343C147.116 54.4788 147.376 54.6522 147.579 54.8834C147.782 55.1147 147.926 55.3748 148.013 55.6349C148.1 55.9239 148.129 56.184 148.129 56.4441C148.129 56.7043 148.071 56.9644 147.984 57.2245C147.897 57.4846 147.753 57.6869 147.579 57.8892C147.405 58.0916 147.174 58.265 146.942 58.4095C146.682 58.554 146.392 58.6407 146.074 58.6696L148.447 62.4846H147.029L144.887 58.7852H143.614V62.4846H142.485V54.1031ZM143.614 57.8025H145.119C145.35 57.8025 145.553 57.7736 145.785 57.7447C145.987 57.7158 146.19 57.658 146.363 57.5424C146.537 57.4557 146.682 57.3112 146.769 57.1378C146.884 56.9644 146.913 56.7332 146.913 56.4441C146.913 56.1551 146.855 55.9239 146.769 55.7505C146.653 55.5771 146.537 55.4326 146.363 55.3459C146.19 55.2592 145.987 55.1725 145.785 55.1436C145.553 55.1147 145.35 55.0858 145.119 55.0858H143.614V57.8025Z" fill="white"/>
<path d="M151.255 54.1031H152.442L154.294 60.8083H154.323L156.291 54.1031H157.593L159.561 60.8083H159.59L161.443 54.1031H162.629L160.198 62.4846H158.983L156.957 55.6638H156.928L154.902 62.4846H153.686L151.255 54.1031Z" fill="white"/>
<path d="M166.305 54.1031H169.257C169.807 54.1031 170.241 54.1898 170.589 54.3343C170.936 54.4788 171.196 54.6522 171.399 54.8834C171.602 55.1147 171.746 55.3748 171.833 55.6349C171.92 55.9239 171.949 56.184 171.949 56.4441C171.949 56.7043 171.891 56.9644 171.804 57.2245C171.717 57.4846 171.573 57.6869 171.399 57.8892C171.225 58.0916 170.994 58.265 170.762 58.4095C170.502 58.554 170.212 58.6407 169.894 58.6696L172.267 62.4846H170.849L168.707 58.7852H167.434V62.4846H166.305V54.1031ZM167.463 57.8025H168.968C169.199 57.8025 169.402 57.7736 169.634 57.7447C169.836 57.7158 170.039 57.658 170.212 57.5424C170.386 57.4557 170.531 57.3112 170.618 57.1378C170.733 56.9644 170.762 56.7332 170.762 56.4441C170.762 56.1551 170.704 55.9239 170.618 55.7505C170.502 55.5771 170.386 55.4326 170.212 55.3459C170.039 55.2592 169.836 55.1725 169.634 55.1436C169.402 55.1147 169.199 55.0858 168.968 55.0858H167.463V57.8025Z" fill="white"/>
<path d="M176.145 54.1031H177.274V62.4846H176.145V54.1031Z" fill="white"/>
<path d="M183.787 55.1725H181.096V54.1031H187.637V55.1725H184.945V62.4846H183.787V55.1725Z" fill="white"/>
<path d="M191.456 54.1031H196.868V55.1725H192.585V57.658H196.55V58.7274H192.585V61.4153H197.071V62.4846H191.456V54.1031Z" fill="white"/>
<path d="M201.297 54.1031H204.249C204.799 54.1031 205.233 54.1898 205.581 54.3343C205.928 54.4788 206.188 54.6522 206.391 54.8834C206.594 55.1147 206.738 55.3748 206.825 55.6349C206.912 55.9239 206.941 56.184 206.941 56.4441C206.941 56.7043 206.883 56.9644 206.796 57.2245C206.709 57.4846 206.565 57.6869 206.391 57.8892C206.217 58.0916 205.986 58.265 205.754 58.4095C205.494 58.554 205.204 58.6407 204.886 58.6696L207.259 62.4846H205.841L203.699 58.7852H202.426V62.4846H201.297V54.1031ZM202.426 57.8025H203.931C204.162 57.8025 204.365 57.7736 204.597 57.7447C204.799 57.7158 205.002 57.658 205.175 57.5424C205.349 57.4557 205.494 57.3112 205.581 57.1378C205.696 56.9644 205.725 56.7332 205.725 56.4441C205.725 56.1551 205.667 55.9239 205.581 55.7505C205.465 55.5771 205.349 55.4326 205.175 55.3459C205.002 55.2592 204.799 55.1725 204.597 55.1436C204.365 55.1147 204.162 55.0858 203.931 55.0858H202.426V57.8025Z" fill="white"/>
<path d="M211.369 60.7212C211.571 61.0391 211.832 61.2414 212.15 61.4148C212.469 61.5593 212.787 61.6461 213.134 61.6461C213.337 61.6461 213.511 61.6172 213.713 61.5593C213.916 61.5015 214.089 61.4148 214.263 61.2992C214.437 61.1836 214.552 61.0391 214.668 60.8657C214.784 60.6923 214.813 60.49 214.813 60.2588C214.813 59.9408 214.697 59.6807 214.495 59.5073C214.292 59.3339 214.032 59.1894 213.742 59.0738C213.453 58.9582 213.105 58.8426 212.758 58.7559C212.411 58.6403 212.063 58.4958 211.774 58.3223C211.456 58.12 211.224 57.8888 211.021 57.5709C210.819 57.253 210.703 56.8194 210.703 56.2703C210.703 56.0391 210.761 55.779 210.877 55.49C210.993 55.2009 211.137 54.9697 211.369 54.7385C211.6 54.5073 211.89 54.305 212.237 54.1605C212.584 54.016 213.019 53.9293 213.539 53.9293C214.003 53.9293 214.437 53.9871 214.842 54.1316C215.247 54.2472 215.623 54.5073 215.942 54.9119L215.016 55.7501C214.871 55.5189 214.668 55.3455 214.408 55.2298C214.147 55.0853 213.858 55.0275 213.511 55.0275C213.192 55.0275 212.932 55.0564 212.729 55.1431C212.526 55.2298 212.353 55.3454 212.237 55.4611C212.121 55.6056 212.034 55.7212 211.977 55.8946C211.919 56.0391 211.89 56.1836 211.89 56.2992C211.89 56.646 212.006 56.9351 212.208 57.1085C212.411 57.3108 212.671 57.4553 212.961 57.5709C213.25 57.6865 213.597 57.8021 213.945 57.8888C214.292 57.9755 214.639 58.12 214.929 58.2934C215.218 58.4668 215.479 58.6981 215.681 58.9871C215.884 59.2761 216 59.6807 216 60.1721C216 60.5767 215.913 60.9235 215.768 61.2703C215.623 61.5882 215.421 61.8773 215.16 62.0796C214.9 62.3108 214.581 62.4553 214.234 62.5998C213.887 62.7154 213.511 62.7732 213.105 62.7732C212.555 62.7732 212.063 62.6865 211.571 62.4842C211.079 62.2819 210.703 61.9929 210.414 61.6171L211.369 60.7212Z" fill="white"/>
</svg>
