<svg width="48" height="48" viewBox="0 0 48 48" fill="none" xmlns="http://www.w3.org/2000/svg">
<g filter="url(#filter0_d_3041_9894)">
<path d="M21.2 29.2L35.3 15.1L32.5 12.3L21.2 23.6L15.5 17.9L12.7 20.7L21.2 29.2ZM24 40C21.2333 40 18.6333 39.4747 16.2 38.424C13.7667 37.3747 11.65 35.95 9.85 34.15C8.05 32.35 6.62533 30.2334 5.576 27.8C4.52533 25.3667 4 22.7667 4 20C4 17.2334 4.52533 14.6334 5.576 12.2C6.62533 9.7667 8.05 7.65003 9.85 5.85003C11.65 4.05003 13.7667 2.6247 16.2 1.57403C18.6333 0.524697 21.2333 3.05176e-05 24 3.05176e-05C26.7667 3.05176e-05 29.3667 0.524697 31.8 1.57403C34.2333 2.6247 36.35 4.05003 38.15 5.85003C39.95 7.65003 41.3747 9.7667 42.424 12.2C43.4747 14.6334 44 17.2334 44 20C44 22.7667 43.4747 25.3667 42.424 27.8C41.3747 30.2334 39.95 32.35 38.15 34.15C36.35 35.95 34.2333 37.3747 31.8 38.424C29.3667 39.4747 26.7667 40 24 40ZM24 36C28.4667 36 32.25 34.45 35.35 31.35C38.45 28.25 40 24.4667 40 20C40 15.5334 38.45 11.75 35.35 8.65003C32.25 5.55003 28.4667 4.00003 24 4.00003C19.5333 4.00003 15.75 5.55003 12.65 8.65003C9.55 11.75 8 15.5334 8 20C8 24.4667 9.55 28.25 12.65 31.35C15.75 34.45 19.5333 36 24 36Z" fill="#03B435"/>
</g>
<defs>
<filter id="filter0_d_3041_9894" x="0" y="3.05176e-05" width="48" height="48" filterUnits="userSpaceOnUse" color-interpolation-filters="sRGB">
<feFlood flood-opacity="0" result="BackgroundImageFix"/>
<feColorMatrix in="SourceAlpha" type="matrix" values="0 0 0 0 0 0 0 0 0 0 0 0 0 0 0 0 0 0 127 0" result="hardAlpha"/>
<feOffset dy="4"/>
<feGaussianBlur stdDeviation="2"/>
<feComposite in2="hardAlpha" operator="out"/>
<feColorMatrix type="matrix" values="0 0 0 0 0 0 0 0 0 0 0 0 0 0 0 0 0 0 0.25 0"/>
<feBlend mode="normal" in2="BackgroundImageFix" result="effect1_dropShadow_3041_9894"/>
<feBlend mode="normal" in="SourceGraphic" in2="effect1_dropShadow_3041_9894" result="shape"/>
</filter>
</defs>
</svg>
